<svg xmlns="http://www.w3.org/2000/svg" xmlns:xlink="http://www.w3.org/1999/xlink" version="1.1" width="347.7" height="56.89" viewBox="0 0 347.7 56.89">
<defs>
<path id="font_1_104" d="M.7569885 .43385316 .73599246 .6748047H.06298828L.041992189 .43385316H.08898926C.09799194 .5468292 .10798645 .62779238 .2519989 .62779238H.32899476V.04699707H.17599488V0C.22999573 .0029907227 .34098817 .0029907227 .3999939 .0029907227 .45899964 .0029907227 .56999209 .0029907227 .6239929 0V.04699707H.47099305V.62779238H.5469971C.6899872 .62779238 .69999697 .54782107 .70999148 .43385316H.7569885Z"/>
<path id="font_1_63" d="M.61499026 0V.04699707H.54599V.30613709C.54599 .41119386 .49198915 .4501953 .3919983 .4501953 .29599 .4501953 .24499512 .3921814 .22299195 .3541565H.22200012V.69433596L.04499817 .6855469V.63853457C.10699463 .63853457 .11399841 .63853457 .11399841 .5996704V.04699707H.04499817V0L.17098999 .0029907227 .29699708 0V.04699707H.22799683V.25610353C.22799683 .36515809 .31399537 .41418458 .3769989 .41418458 .41099549 .41418458 .43199159 .39317323 .43199159 .31713868V.04699707H.36299134V0L.4889984 .0029907227 .61499026 0Z"/>
<path id="font_1_50" d="M.49398805 .11706543C.49398805 .13504029 .47499085 .13504029 .46998597 .13504029 .45298768 .13504029 .45098878 .13005066 .44499208 .11405945 .42399598 .066101077 .36698915 .03413391 .3019867 .03413391 .16099549 .03413391 .1599884 .16700745 .1599884 .2179718H.46199037C.48399354 .2179718 .49398805 .2179718 .49398805 .2449646 .49398805 .27598573 .48799134 .34906007 .43798829 .3991089 .40098573 .43511964 .34799195 .453125 .2789917 .453125 .11898804 .453125 .03199768 .35005189 .03199768 .22497559 .03199768 .09107971 .13198853-.005859375 .29299928-.005859375 .45098878-.005859375 .49398805 .10006714 .49398805 .11706543M.39898683 .25097657H.1599884C.1619873 .29000855 .16299439 .3320465 .18399048 .36506654 .20999146 .4051056 .25 .41711427 .2789917 .41711427 .3959961 .41711427 .397995 .28599549 .39898683 .25097657Z"/>
<path id="font_1_81" d="M.5419922 .21812439C.5419922 .35212709 .44999696 .453125 .2869873 .453125 .12298584 .453125 .03199768 .35112 .03199768 .21812439 .03199768 .09413147 .11999512-.005859375 .2869873-.005859375 .45498658-.005859375 .5419922 .09512329 .5419922 .21812439M.4139862 .22912598C.4139862 .14213562 .4139862 .03413391 .2869873 .03413391 .1599884 .03413391 .1599884 .14213562 .1599884 .22912598 .1599884 .27412416 .1599884 .32511903 .1769867 .3591156 .19599915 .39611817 .23799134 .41711427 .2869873 .41711427 .32899476 .41711427 .37098695 .40112306 .3929901 .36611939 .4139862 .3321228 .4139862 .27713014 .4139862 .22912598Z"/>
<path id="font_1_96" d="M.44198609 .36819459C.44198609 .42118836 .3880005 .4501953 .33599855 .4501953 .2659912 .4501953 .22599793 .40019227 .20298767 .33718873V.4501953L.036987306 .4423828V.39537049C.09899902 .39537049 .10598755 .39537049 .10598755 .3563385V.04699707H.036987306V0L.16299439 .0029907227C.20098877 .0029907227 .2649994 .0029907227 .30099488 0V.04699707H.21398926V.22218323C.21398926 .29226686 .23899842 .41436769 .33898927 .41436769 .33898927 .41436769 .31999208 .39736939 .31999208 .36834718 .31999208 .32730104 .35198976 .3072815 .3809967 .3072815 .4099884 .3072815 .44198609 .3283081 .44198609 .36834718V.36819459Z"/>
<path id="font_1_75" d="M.93499758 0V.04699707H.8659973V.30613709C.8659973 .40919496 .8149872 .4501953 .71199038 .4501953 .62098696 .4501953 .56900027 .40019227 .54299929 .3541565 .522995 .44718934 .43099977 .4501953 .3929901 .4501953 .30599977 .4501953 .24899292 .40518189 .21699524 .3421631V.4501953L.04499817 .4423828V.39537049C.10699463 .39537049 .11399841 .39537049 .11399841 .3563385V.04699707H.04499817V0L.17098999 .0029907227 .29699708 0V.04699707H.22799683V.2562256C.22799683 .3653412 .31498719 .41436769 .3769989 .41436769 .41099549 .41436769 .43299867 .39437867 .43299867 .31729127V.04699707H.3639984V0L.48999024 .0029907227 .6159973 0V.04699707H.5469971V.2562256C.5469971 .3653412 .6339874 .41436769 .69599917 .41436769 .7299957 .41436769 .7519989 .39437867 .7519989 .31729127V.04699707H.68299868V0L.8089905 .0029907227 .93499758 0Z"/>
<path id="font_1_82" d="M.49398805 0V.04699707H.35398866V.6231079C.35398866 .6452179 .35398866 .65527346 .32798768 .65527346 .31698609 .65527346 .31498719 .65527346 .30599977 .6482239 .22898865 .5909424 .12599182 .5909424 .10499573 .5909424H.084991458V.5439453H.10499573C.12098694 .5439453 .17599488 .54493716 .23498535 .5639343V.04699707H.09599304V0C.13999939 .0029907227 .24598694 .0029907227 .29499818 .0029907227 .34399415 .0029907227 .44999696 .0029907227 .49398805 0Z"/>
<path id="font_1_88" d="M.23699951 .07798767C.23699951 .12098694 .20199585 .1559906 .15899658 .1559906 .115997318 .1559906 .08099365 .12098694 .08099365 .07798767 .08099365 .034988405 .115997318 0 .15899658 0 .20199585 0 .23699951 .034988405 .23699951 .07798767Z"/>
<path id="font_2_65" d="M.33799745 .018997193C.33799745 .0309906 .32998658 .0309906 .30999757 .0309906 .24798584 .0309906 .24798584 .037994386 .24798584 .048980714 .24798584 .048980714 .24798584 .05596924 .2519989 .07096863L.3869934 .6106262C.394989 .64260867 .40098573 .6516113 .46998597 .6516113 .4909973 .6516113 .5009918 .6516113 .5009918 .6706085 .5009918 .6826172 .4909973 .6826172 .4869995 .6826172 .44699098 .6826172 .40499879 .6796112 .3639984 .6796112 .32299806 .6796112 .27999879 .6826172 .23899842 .6826172 .23199463 .6826172 .21998596 .6826172 .21998596 .6646118 .21998596 .6516113 .22698975 .6516113 .24699402 .6516113 .2809906 .6516113 .30999757 .6516113 .30999757 .63461306 .30999757 .6316223 .30799867 .6186218 .30699159 .6156311L.17098999 .07196045C.16299439 .038986207 .1539917 .0309906 .08699036 .0309906 .06599426 .0309906 .056991579 .0309906 .056991579 .0129852299 .056991579 .0019989014 .06399536 0 .070999149 0 .11099243 0 .15299988 .0029907227 .19400025 .0029907227 .23498535 .0029907227 .27799989 0 .31799317 0 .32499696 0 .33799745 0 .33799745 .018997193Z"/>
<path id="font_2_55" d="M.45199586 .63897708C.45199586 .6820679 .41099549 .7050781 .36999513 .7050781 .27198792 .7050781 .24699402 .5749512 .23999024 .54089358L.21899414 .43066407H.15299988C.13699341 .43066407 .12599182 .43066407 .12599182 .4106598 .12599182 .3996582 .13598633 .3996582 .15098572 .3996582H.21299744L.13999939 .026931763C.12799073-.03503418 .117996219-.07600403 .11199951-.09698486 .10398865-.1309967 .09098816-.18309021 .054992677-.18309021 .04499817-.18309021 .025985718-.18006897 .01499939-.16499329 .04499817-.1599884 .05899048-.13598633 .05899048-.115997318 .05899048-.09399414 .040985109-.083984378 .024993897-.083984378 0-.083984378-.025009156-.10398865-.025009156-.13899231-.025009156-.18408203 .017990113-.20507813 .054992677-.20507813 .15899658-.20507813 .19999695 .0049438478 .20698548 .040924074L.2769928 .3996582H.35899354C.37599183 .3996582 .38598634 .3996582 .38598634 .41766358 .38598634 .43066407 .37799073 .43066407 .36099244 .43066407H.2829895L.31498719 .5929718C.32299806 .62997439 .33399964 .68307498 .36999513 .68307498 .37799073 .68307498 .39898683 .6810608 .4119873 .6649933 .38198854 .65997317 .36799623 .63597109 .36799623 .61598208 .36799623 .5939789 .38598634 .5839844 .4019928 .5839844 .4269867 .5839844 .45199586 .6039734 .45199586 .63897708Z"/>
<path id="font_2_105" d="M.35598756 .14305115C.35598756 .1530304 .34799195 .1530304 .34098817 .1530304 .32899476 .1530304 .32899476 .15203858 .32099916 .13406372 .30299378 .086135867 .2630005 .011245728 .20599365 .011245728 .1789856 .011245728 .1789856 .036209108 .1789856 .05218506 .1789856 .059173585 .1789856 .075149539 .18598938 .10310364L.2599945 .3996582H.34498597C.3619995 .3996582 .37298585 .3996582 .37298585 .4186554 .37298585 .43066407 .3639984 .43066407 .34799195 .43066407H.2679901L.30499269 .57888796C.30899049 .59291079 .30899049 .5949249 .30899049 .5999298 .30899049 .6209564 .2919922 .62597659 .28199769 .62597659 .25698854 .62597659 .24699402 .6049347 .24299622 .5899048L.20399475 .43066407H.11898804C.101989749 .43066407 .09098816 .43066407 .09098816 .4116516 .09098816 .3996582 .099990848 .3996582 .115997318 .3996582H.19599915L.12399292 .113098148C.12298584 .10910034 .11898804 .09312439 .11898804 .07914734 .11898804 .029220581 .1519928-.0107421879 .20399475-.0107421879 .30499269-.0107421879 .35598756 .13806153 .35598756 .14305115Z"/>
<path id="font_2_63" d="M.5349884 .14329529C.5349884 .1532898 .5269928 .1532898 .519989 .1532898 .5069885 .1532898 .5069885 .1512909 .5029907 .1362915 .49499513 .10928345 .46798707 .011245728 .4099884 .011245728 .3889923 .011245728 .3880005 .026260376 .3880005 .040252687 .3880005 .06526184 .397995 .091278079 .4059906 .11528015 .42599488 .16830445 .46699525 .28033448 .46699525 .3383484 .46699525 .42037965 .4119873 .4423828 .36299134 .4423828 .29599 .4423828 .26098634 .4073639 .22999573 .3773651L.30299378 .6693268C.3039856 .67233279 .30599977 .6823273 .30599977 .6823273 .30599977 .69132998 .2999878 .69433596 .2919922 .69433596 .2889862 .69433596 .2789917 .69332888 .27598573 .6923218L.1769867 .6843262C.16499329 .68333438 .1539917 .6823273 .1539917 .6633301 .1539917 .6523285 .1639862 .6523285 .17799378 .6523285 .22599793 .6523285 .22799683 .6453247 .22799683 .6353302 .22799683 .6323395 .22499085 .6183319 .22499085 .6183319L.07699585 .028259278C.07598877 .026260376 .07499695 .015258789 .07499695 .015258789 .07499695 .004257202 .083999637-.0107421879 .102996829-.0107421879 .12399292-.0107421879 .13699341 .0062561037 .13999939 .01725769L.18299866 .19030762C.18798828 .21231079 .19400025 .23332215 .19898987 .25532533 .20799256 .29133607 .20899964 .29333497 .22698975 .3253479 .24699402 .35736085 .2899933 .42037965 .3600006 .42037965 .4039917 .42037965 .4059906 .3753662 .4059906 .35435487 .4059906 .29232789 .3619995 .17329407 .34799195 .13328552 .33499146 .09927368 .33198548 .090270999 .33198548 .0692749 .33198548 .025253296 .3600006-.0107421879 .4079895-.0107421879 .5009918-.0107421879 .5349884 .1382904 .5349884 .14329529Z"/>
<path id="font_2_50" d="M.46798707 .10432434C.46798707 .10932922 .45999146 .12034607 .45199586 .12034607 .44799806 .12034607 .44699098 .11933899 .43899537 .10932922 .36499024 .015258789 .27598573 .011245728 .25898744 .011245728 .19400025 .011245728 .18299866 .08230591 .18299866 .12133789 .18299866 .15937805 .19299317 .204422 .19999695 .23144531H.23899842C.2689972 .23144531 .33599855 .23443604 .38398744 .25343324 .46299745 .2854309 .46299745 .35040284 .46299745 .35740663 .46299745 .40338136 .42599488 .4423828 .3619995 .4423828 .25698854 .4423828 .11399841 .34140016 .11399841 .16438294 .11399841 .0743103 .1619873-.0107421879 .25698854-.0107421879 .3849945-.0107421879 .46798707 .08930969 .46798707 .10432434M.4249878 .35940553C.4249878 .25343324 .2599945 .25343324 .22698975 .25343324H.20599365C.24899292 .41737367 .35198976 .42037965 .3619995 .42037965 .4019928 .42037965 .4249878 .39338685 .4249878 .35940553Z"/>
<path id="font_2_43" d="M.46798707 .10417175C.46798707 .10916138 .45999146 .120147708 .45199586 .120147708 .44799806 .120147708 .44699098 .119155887 .43899537 .10916138 .36499024 .01524353 .27598573 .011245728 .25898744 .011245728 .20498657 .011245728 .17999268 .05621338 .17999268 .114151 .17999268 .16711426 .20698548 .27201844 .23298645 .31999208 .2689972 .3850708 .31900025 .42037965 .3639984 .42037965 .375 .42037965 .41999818 .41836549 .43499757 .37701417 .3849945 .37098695 .3849945 .32798768 .3849945 .32798768 .3849945 .31199647 .3959961 .29599 .4189911 .29599 .44599916 .29599 .46998597 .31799317 .46998597 .35598756 .46998597 .40524293 .4269867 .4423828 .36299134 .4423828 .23899842 .4423828 .10998535 .2999878 .10998535 .15411377 .10998535 .0552063 .16899109-.0107421879 .25698854-.0107421879 .3849945-.0107421879 .46798707 .08917236 .46798707 .10417175Z"/>
<path id="font_2_28" d="M.5249939 .14329529C.5249939 .1532898 .5169983 .1532898 .5099945 .1532898 .49798585 .1532898 .49699403 .15229798 .4909973 .13027954 .47698976 .07426453 .45799256 .011245728 .42399598 .011245728 .397995 .011245728 .397995 .038253786 .397995 .052261354 .397995 .059265138 .397995 .07527161 .40499879 .103271488L.47299195 .3753662C.47698976 .38935853 .47698976 .39135743 .47698976 .3963623 .47698976 .41737367 .45999146 .42237855 .44999696 .42237855 .41799928 .42237855 .41099549 .3883667 .4099884 .38336183 .3909912 .42637635 .35899354 .4423828 .32699586 .4423828 .21598816 .4423828 .09799194 .29032899 .09799194 .14428711 .09799194 .059265138 .14399719-.0107421879 .21899414-.0107421879 .25498963-.0107421879 .29899598 .010253906 .33898927 .059265138 .34999085 .010253906 .3869934-.0107421879 .42199708-.0107421879 .45899964-.0107421879 .47999574 .014251709 .49499513 .04525757 .5130005 .08326721 .5249939 .14329529 .5249939 .14329529M.34599305 .12428284C.33799745 .0922699 .27598573 .011245728 .22099304 .011245728 .17399597 .011245728 .1659851 .07026672 .1659851 .10028076 .1659851 .15029907 .19699097 .26733399 .21499634 .30934144 .23999024 .37036134 .28599549 .42037965 .32699586 .42037965 .37098695 .42037965 .3959961 .36836244 .3959961 .32633973 .3959961 .32633973 .394989 .31933595 .3929901 .31333924L.34599305 .12428284Z"/>
<path id="font_2_77" d="M.58599856 .14329529C.58599856 .1532898 .5779877 .1532898 .57099917 .1532898 .55799868 .1532898 .55799868 .1512909 .55400088 .1362915 .54599 .10928345 .5189972 .011245728 .46099855 .011245728 .43998719 .011245728 .43899537 .026260376 .43899537 .040252687 .43899537 .06526184 .44898988 .091278079 .45700074 .11528015 .47698976 .16830445 .5179901 .28033448 .5179901 .3383484 .5179901 .42037965 .46299745 .4423828 .4139862 .4423828 .33198548 .4423828 .28399659 .38235475 .2709961 .36335755 .2639923 .41236878 .22999573 .4423828 .18699646 .4423828 .15098572 .4423828 .1309967 .41937257 .114990238 .38935853 .09599304 .34934999 .08299255 .28833009 .08299255 .28833009 .08299255 .27833558 .09298706 .27833558 .09799194 .27833558 .11099243 .27833558 .11199951 .2793274 .116989139 .30133058 .1349945 .37135316 .1539917 .42037965 .18499756 .42037965 .21099854 .42037965 .21099854 .39135743 .21099854 .38035584 .21099854 .36434938 .20799256 .34535218 .20399475 .3293457L.1289978 .029251099C.1269989 .023254395 .12599182 .018249512 .12599182 .015258789 .12599182 .004257202 .13398743-.0107421879 .1539917-.0107421879 .1659851-.0107421879 .18299866-.003753662 .18998719 .015258789L.22999573 .17529297C.23498535 .1973114 .24099732 .2183075 .24598694 .24032593 .25898744 .29133607 .25898744 .29232789 .27598573 .3213501 .2899933 .34535218 .33499146 .42037965 .41099549 .42037965 .45498658 .42037965 .45700074 .3753662 .45700074 .35435487 .45700074 .29232789 .41299439 .17329407 .39898683 .13328552 .38598634 .09927368 .3829956 .090270999 .3829956 .0692749 .3829956 .025253296 .41099549-.0107421879 .45899964-.0107421879 .5519867-.0107421879 .58599856 .1382904 .58599856 .14329529Z"/>
<path id="font_2_72" d="M.27999879 .14326477C.27999879 .15327454 .27198792 .15327454 .2649994 .15327454 .2599945 .15327454 .2539978 .15327454 .25099183 .14826966L.24398804 .1232605C.22698975 .053253175 .20799256 .011245728 .17999268 .011245728 .1539917 .011245728 .1539917 .038253786 .1539917 .052261354 .1539917 .059249879 .1539917 .07426453 .1599884 .0982666L.30299378 .6693268C.3039856 .67233279 .30599977 .6823273 .30599977 .6823273 .30599977 .69132998 .2999878 .69433596 .2919922 .69433596 .2889862 .69433596 .2789917 .69332888 .27598573 .6923218L.1769867 .6843262C.16499329 .68333438 .1539917 .6823273 .1539917 .6633301 .1539917 .6523285 .1639862 .6523285 .17799378 .6523285 .22599793 .6523285 .22799683 .6453247 .22799683 .6353302 .22799683 .6323242 .22499085 .61831668 .22499085 .61831668L.099990848 .118255618C.09899902 .11425781 .09399414 .09425354 .09399414 .07925415 .09399414 .026245118 .12998963-.0107421879 .17799378-.0107421879 .21598816-.0107421879 .23599243 .01625061 .24899292 .041259767 .2659912 .07626343 .27999879 .14025879 .27999879 .14326477Z"/>
<path id="font_2_75" d="M.84199526 .14329529C.84199526 .1532898 .83399966 .1532898 .82699587 .1532898 .81399539 .1532898 .81399539 .1512909 .80999758 .1362915 .8019867 .10928345 .7749939 .011245728 .71699526 .011245728 .69599917 .011245728 .69499209 .026260376 .69499209 .040252687 .69499209 .06526184 .7049866 .091278079 .71299746 .11528015 .73298647 .16830445 .7739868 .28033448 .7739868 .3383484 .7739868 .42237855 .71598818 .4423828 .6689911 .4423828 .598999 .4423828 .548996 .3983612 .5189972 .35435487 .5109863 .42337037 .45899964 .4423828 .4139862 .4423828 .35398866 .4423828 .30499269 .4093628 .2709961 .36335755 .2639923 .41236878 .22999573 .4423828 .18699646 .4423828 .15098572 .4423828 .1309967 .41937257 .114990238 .38935853 .09599304 .34934999 .08299255 .28833009 .08299255 .28833009 .08299255 .27833558 .09298706 .27833558 .09799194 .27833558 .11099243 .27833558 .11199951 .2793274 .116989139 .30133058 .1349945 .37135316 .1539917 .42037965 .18499756 .42037965 .21099854 .42037965 .21099854 .39135743 .21099854 .38035584 .21099854 .36434938 .20799256 .34535218 .20399475 .3293457L.1289978 .029251099C.1269989 .023254395 .12599182 .018249512 .12599182 .015258789 .12599182 .004257202 .13398743-.0107421879 .1539917-.0107421879 .1659851-.0107421879 .18299866-.003753662 .18998719 .015258789L.22999573 .17529297C.23498535 .1973114 .24099732 .2183075 .24598694 .24032593 .25898744 .28933717 .25898744 .29133607 .2709961 .3123474 .2999878 .36235047 .34298707 .42037965 .4119873 .42037965 .45799256 .42037965 .45799256 .36935426 .45799256 .35435487 .45799256 .3273468 .45098878 .29833985 .44898988 .28933717L.38398744 .029251099C.38198854 .023254395 .3809967 .018249512 .3809967 .015258789 .3809967 .004257202 .3889923-.0107421879 .40899659-.0107421879 .42099-.0107421879 .43798829-.003753662 .44499208 .015258789L.4850006 .17529297C.48999024 .1973114 .49598695 .2183075 .5009918 .24032593 .5139923 .28933717 .5139923 .29133607 .526001 .3123474 .5549927 .36235047 .59799197 .42037965 .6669922 .42037965 .71299746 .42037965 .71299746 .36935426 .71299746 .35435487 .71299746 .29232789 .6689911 .17329407 .6549988 .13328552 .6419983 .09927368 .6389923 .090270999 .6389923 .0692749 .6389923 .025253296 .6669922-.0107421879 .71499636-.0107421879 .80799868-.0107421879 .84199526 .1382904 .84199526 .14329529Z"/>
<path id="font_2_96" d="M.4889984 .37927247C.4889984 .43138124 .42399598 .4423828 .3909912 .4423828 .32199098 .4423828 .28599549 .39227296 .269989 .37026979 .25898744 .42337037 .21998596 .4423828 .18699646 .4423828 .15098572 .4423828 .1309967 .41937257 .114990238 .38926698 .09599304 .34925843 .08299255 .28826905 .08299255 .28826905 .08299255 .27825929 .09298706 .27825929 .09799194 .27825929 .11099243 .27825929 .11199951 .27926637 .116989139 .30126954 .1349945 .3712616 .1539917 .42037965 .18499756 .42037965 .21099854 .42037965 .21099854 .39126588 .21099854 .38026429 .21099854 .36427308 .20799256 .34526063 .20399475 .3292694L.1289978 .029251099C.1269989 .023254395 .12599182 .018249512 .12599182 .015258789 .12599182 .004257202 .13398743-.0107421879 .1539917-.0107421879 .18399048-.0107421879 .19099427 .018249512 .19299317 .026245118L.2579956 .28826905C.25898744 .29125978 .3039856 .42037965 .3899994 .42037965 .394989 .42037965 .4229889 .42037965 .44299317 .40628053 .4079895 .39526368 .40499879 .363266 .40499879 .3582611 .40499879 .34526063 .4139862 .32626344 .43998719 .32626344 .45799256 .32626344 .4889984 .340271 .4889984 .37927247Z"/>
<path id="font_2_66" d="M.33099366 .14329529C.33099366 .1532898 .32299806 .1532898 .31599427 .1532898 .30299378 .1532898 .30299378 .1512909 .29899598 .1362915 .29100038 .107284549 .2639923 .011245728 .20599365 .011245728 .19799805 .011245728 .18399048 .012252808 .18399048 .039260866 .18399048 .06526184 .19699097 .09828186 .20999146 .13528443L.27398683 .30633546C.28399659 .3353424 .28599549 .34335328 .28599549 .36235047 .28599549 .41737367 .24798584 .4423828 .21099854 .4423828 .116989139 .4423828 .08299255 .29333497 .08299255 .28833009 .08299255 .27833558 .09298706 .27833558 .09799194 .27833558 .11099243 .27833558 .11199951 .28033448 .115997318 .29434205 .125 .3273468 .15098572 .42037965 .20899964 .42037965 .21998596 .42037965 .23098755 .41537477 .23098755 .3923645 .23098755 .36836244 .21998596 .33935548 .21299744 .32034303L.18299866 .23731995 .1459961 .1382904C.13198853 .10028076 .12799073 .089279178 .12799073 .0692749 .12799073 .030258179 .1519928-.0107421879 .20399475-.0107421879 .2979889-.0107421879 .33099366 .13928223 .33099366 .14329529M.35798646 .61128237C.35798646 .6322937 .34298707 .6542969 .31298829 .6542969 .2809906 .6542969 .24899292 .623291 .24899292 .59129336 .24899292 .56929019 .2649994 .54829409 .2939911 .54829409 .32598878 .54829409 .35798646 .57928469 .35798646 .61128237Z"/>
<path id="font_2_116" d="M.48799134 .14334107C.48799134 .15333557 .47999574 .15333557 .47299195 .15333557 .46099855 .15333557 .45999146 .15234375 .45498658 .13633728 .42799378 .050338746 .37799073 .011245728 .33599855 .011245728 .31599427 .011245728 .2889862 .02331543 .2889862 .07533264 .2889862 .09933472 .2999878 .14233399 .30799867 .17634583L.34199525 .3133545C.35598756 .3653717 .3829956 .42037965 .42999269 .42037965 .43299867 .42037965 .45799256 .42037965 .47399903 .40637208 .43399049 .39637757 .43399049 .35836793 .43399049 .35836793 .43399049 .34536744 .44299317 .32637025 .46899415 .32637025 .4869995 .32637025 .5179901 .34036256 .5179901 .379364 .5179901 .43037416 .45999146 .4423828 .43099977 .4423828 .37599183 .4423828 .34298707 .39337159 .33299256 .3743744 .31098939 .43437196 .2619934 .4423828 .23699951 .4423828 .13699341 .4423828 .08299255 .3113556 .08299255 .2883606 .08299255 .27835084 .09298706 .27835084 .09799194 .27835084 .11099243 .27835084 .11099243 .2793579 .115997318 .29536439 .14299011 .38136292 .19499207 .42037965 .23498535 .42037965 .2639923 .42037965 .2829895 .39736939 .2829895 .35736085 .2829895 .33335877 .2709961 .2843628 .2619934 .24736023L.23899842 .15634156C.22299195 .09133911 .20199585 .011245728 .14199829 .011245728 .13899231 .011245728 .114990238 .011245728 .09799194 .02532959 .12799073 .033340455 .13699341 .05833435 .13699341 .07333374 .13699341 .09933472 .115997318 .10533142 .102996829 .10533142 .07798767 .10533142 .052993776 .08433533 .052993776 .051330568 .052993776 .012252808 .09498596-.0107421879 .14099121-.0107421879 .18899536-.0107421879 .22200012 .02734375 .23899842 .05734253 .25898744 .00024414063 .30799867-.0107421879 .33399964-.0107421879 .43699647-.0107421879 .48799134 .12333679 .48799134 .14334107Z"/>
<path id="font_2_98" d="M.3929901 .15733338C.3929901 .24420166 .31498719 .2621765 .27398683 .27116395 .24598694 .2771454 .20999146 .285141 .20999146 .32810975 .20999146 .35211183 .23098755 .42037965 .31098939 .42037965 .33799745 .42037965 .375 .4103241 .38598634 .371109 .35398866 .3671112 .34599305 .34010316 .34599305 .33010865 .34599305 .31910707 .35198976 .30210877 .37599183 .30210877 .3929901 .30210877 .4189911 .31410218 .4189911 .3571167 .4189911 .4032898 .37799073 .4423828 .31199647 .4423828 .19499207 .4423828 .1539917 .3461151 .1539917 .29412843 .1539917 .21723938 .21899414 .20326233 .24699402 .19728089 .29100038 .18728638 .33599855 .17730713 .33599855 .12335205 .33599855 .09135437 .30899049 .011245728 .20599365 .011245728 .18399048 .011245728 .12599182 .01626587 .10998535 .067352298 .16099549 .07235718 .16099549 .11634827 .16099549 .11634827 .16099549 .13534546 .147995 .14834595 .1269989 .14834595 .10398865 .14834595 .07598877 .13134766 .07598877 .08634949 .07598877 .025268555 .13398743-.0107421879 .20498657-.0107421879 .35499574-.0107421879 .3929901 .11135864 .3929901 .15733338Z"/>
<path id="font_2_109" d="M.5609894 .14329529C.5609894 .1532898 .5529938 .1532898 .54599 .1532898 .5339966 .1532898 .5329895 .15229798 .5269928 .13027954 .5130005 .07426453 .49398805 .011245728 .45999146 .011245728 .43399049 .011245728 .43399049 .038253786 .43399049 .052261354 .43399049 .059265138 .43399049 .07527161 .44099427 .103271488L.5130005 .39135743C.5149994 .39736939 .5159912 .40237428 .5159912 .405365 .5159912 .41636659 .5079956 .43138124 .48799134 .43138124 .45799256 .43138124 .45098878 .40237428 .44898988 .3943634L.37599183 .10227966C.37098695 .08427429 .37098695 .08227539 .3619995 .0692749 .34298707 .041259767 .31399537 .011245728 .269989 .011245728 .22499085 .011245728 .21598816 .055267335 .21598816 .088272098 .21598816 .14929199 .24899292 .23931885 .27398683 .30734254 .28199769 .32833863 .2869873 .3423462 .2869873 .36135865 .2869873 .41137696 .2539978 .4423828 .21099854 .4423828 .117996219 .4423828 .08299255 .29434205 .08299255 .28833009 .08299255 .27833558 .09298706 .27833558 .09799194 .27833558 .11099243 .27833558 .11199951 .28033448 .115997318 .29434205 .12399292 .3253479 .15098572 .42037965 .20899964 .42037965 .21998596 .42037965 .23098755 .41737367 .23098755 .39135743 .23098755 .36735536 .22099304 .3403473 .20698548 .30133058 .18099976 .23132324 .15499878 .1572876 .15499878 .105285648 .15499878 .018249512 .21299744-.0107421879 .2669983-.0107421879 .31999208-.0107421879 .35398866 .019256592 .37799073 .04925537 .3959961-.0047454836 .43899537-.0107421879 .45799256-.0107421879 .49499513-.0107421879 .5159912 .014251709 .5309906 .04525757 .548996 .08326721 .5609894 .14329529 .5609894 .14329529Z"/>
<path id="font_2_70" d="M.48399354 .14323426C.48399354 .15322876 .47599793 .15322876 .46899415 .15322876 .45700074 .15322876 .45599366 .15223694 .44999696 .13023377 .43699647 .07923889 .41799928 .011245728 .37399293 .011245728 .34700013 .011245728 .34498597 .034240724 .34498597 .054244996 .34498597 .07723999 .35198976 .10523987 .35299684 .11024475 .35798646 .13124085 .35798646 .13223267 .35798646 .14523316 .35798646 .21322632 .28799439 .24023438 .22499085 .2492218 .24798584 .26322938 .2689972 .28422547 .29599 .31521607 .34799195 .3742218 .3869934 .42037965 .43699647 .42037965 .45599366 .42037965 .46398927 .40823365 .46398927 .40823365 .42199708 .4012146 .4169922 .3662262 .4169922 .35821534 .4169922 .34521485 .42599488 .32621766 .45199586 .32621766 .47399903 .32621766 .5019989 .34422303 .5019989 .3822174 .5019989 .40823365 .48399354 .4423828 .43899537 .4423828 .38598634 .4423828 .34298707 .40022279 .30899049 .36021424 .2519989 .29421998 .23599243 .27822877 .20098877 .26123048L.30299378 .6693268C.3039856 .67233279 .30599977 .6823273 .30599977 .6823273 .30599977 .69132998 .2999878 .69433596 .2919922 .69433596 .2889862 .69433596 .2789917 .69332888 .27598573 .6923218L.1769867 .6843262C.16499329 .68333438 .1539917 .6823273 .1539917 .6633301 .1539917 .6523285 .1639862 .6523285 .17799378 .6523285 .22599793 .6523285 .22799683 .6453247 .22799683 .6353302 .22799683 .6323395 .22499085 .6183319 .22499085 .6183319L.07699585 .028244019C.07598877 .026245118 .07499695 .01524353 .07499695 .01524353 .07499695 .004257202 .083999637-.0107421879 .102996829-.0107421879 .1329956-.0107421879 .13999939 .017242432 .14199829 .026245118L.19299317 .22923279C.22999573 .2242279 .2939911 .20323181 .2939911 .14523316 .2939911 .13824463 .2939911 .13423157 .29100038 .12023926 .2869873 .10324097 .2869873 .09623718 .2869873 .086242679 .2869873 .014251709 .33399964-.0107421879 .37098695-.0107421879 .4149933-.0107421879 .43699647 .022247315 .44799806 .041244508 .46998597 .07923889 .48399354 .14024353 .48399354 .14323426Z"/>
<path id="font_2_45" d="M.22399903 .04699707C.22399903 .07998657 .20999146 .10598755 .17799378 .10598755 .13798523 .10598755 .11299133 .070999149 .11299133 .041992189 .11299133 .009994507 .13598633 0 .15699768 0 .1769867 0 .19299317 .010986328 .19799805 .01499939 .18299866-.06211853 .1329956-.12623596 .085998538-.1663208 .07398987-.17834473 .07299805-.17933655 .07299805-.18334961 .07299805-.18635559 .07598877-.19335938 .08299255-.19335938 .100997928-.19335938 .22399903-.072143558 .22399903 .04699707Z"/>
<path id="font_2_47" d="M.5349884 .14329529C.5349884 .1532898 .5269928 .1532898 .519989 .1532898 .5079956 .1532898 .5069885 .15229798 .5009918 .13027954 .4869995 .07426453 .46798707 .011245728 .43399049 .011245728 .4079895 .011245728 .4079895 .038253786 .4079895 .052261354 .4079895 .059265138 .4079895 .07426453 .4139862 .09828186L.5569916 .6693268C.55799868 .67233279 .55999758 .6823273 .55999758 .6823273 .55999758 .69132998 .55400088 .69433596 .54599 .69433596 .54299929 .69433596 .5329895 .69332888 .5299988 .6923218L.43099977 .6843262C.4189911 .68333438 .4079895 .6823273 .4079895 .6633301 .4079895 .6523285 .41799928 .6523285 .43199159 .6523285 .47999574 .6523285 .48199464 .6453247 .48199464 .6353302 .48199464 .6323395 .47898866 .6183319 .47898866 .6183319L.42099 .3843689C.4059906 .41537477 .3789978 .4423828 .33699037 .4423828 .22599793 .4423828 .10798645 .29032899 .10798645 .14428711 .10798645 .059265138 .1539917-.0107421879 .22898865-.0107421879 .2649994-.0107421879 .30899049 .010253906 .34899903 .059265138 .3600006 .010253906 .39698792-.0107421879 .43199159-.0107421879 .46899415-.0107421879 .48999024 .014251709 .5049896 .04525757 .522995 .08326721 .5349884 .14329529 .5349884 .14329529M.35499574 .122283939C.34700013 .091278079 .28599549 .011245728 .23098755 .011245728 .18399048 .011245728 .17599488 .07026672 .17599488 .10028076 .17599488 .15029907 .20698548 .26733399 .22499085 .30934144 .25 .37036134 .29599 .42037965 .33699037 .42037965 .34498597 .42037965 .36799623 .41937257 .38598634 .39135743 .3959961 .3753662 .4059906 .346344 .4059906 .3273468 .4059906 .32434083 .40499879 .32034303 .40299989 .3143463L.35499574 .122283939Z"/>
<path id="font_2_59" d="M.37399293-.06303406 .48298646 .3753357C.4869995 .39035035 .4869995 .39234925 .4869995 .39634706 .4869995 .41737367 .46998597 .42237855 .45999146 .42237855 .44799806 .42237855 .4249878 .41436769 .42099 .38534547 .40699769 .41436769 .37998963 .4423828 .33699037 .4423828 .22499085 .4423828 .10998535 .2942505 .10998535 .15312195 .10998535 .06803894 .15699768 0 .23199463 0 .2829895 0 .32598878 .041015626 .33799745 .053024293L.31698609-.031021119C.30499269-.08103943 .29899598-.10205078 .2709961-.13606262 .23098755-.18309021 .19099427-.18309021 .17599488-.18309021 .16299439-.18309021 .13198853-.18309021 .10499573-.17208863 .125-.16407776 .13699341-.1430664 .13699341-.12606812 .13699341-.11305237 .12799073-.094055179 .101989749-.094055179 .083999637-.094055179 .052993776-.108047489 .052993776-.14706421 .052993776-.18708802 .08999634-.20507813 .17399597-.20507813 .2789917-.20507813 .35499574-.1390686 .37399293-.06303406M.35798646 .13209534C.34999085 .10006714 .2889862 .021987915 .23399353 .021987915 .17999268 .021987915 .17799378 .09806824 .17799378 .109069827 .17799378 .15711975 .20799256 .27423097 .22898865 .3212738 .2539978 .3753357 .2979889 .42037965 .33699037 .42037965 .39698792 .42037965 .4059906 .33628846 .4059906 .3282776L.40299989 .31427003 .35798646 .13209534Z"/>
<path id="font_2_35" d="M.45899964 .28633119C.45899964 .39337159 .39898683 .4423828 .33898927 .4423828 .30099488 .4423828 .2669983 .42137147 .23298645 .38935853L.30299378 .6693268C.3039856 .67233279 .30599977 .6823273 .30599977 .6823273 .30599977 .69132998 .2999878 .69433596 .2919922 .69433596 .2889862 .69433596 .2789917 .69332888 .27598573 .6923218L.1769867 .6843262C.16499329 .68333438 .1539917 .6823273 .1539917 .6633301 .1539917 .6523285 .1639862 .6523285 .17799378 .6523285 .22599793 .6523285 .22799683 .6453247 .22799683 .6353302 .22799683 .6323395 .22499085 .6183319 .22499085 .6183319L.12599182 .22331238C.125 .2203064 .114990238 .17930603 .114990238 .14129639 .114990238 .057266237 .15699768-.0107421879 .22999573-.0107421879 .34199525-.0107421879 .45899964 .13928223 .45899964 .28633119M.33599855 .106277469C.32398988 .08126831 .2809906 .011245728 .22999573 .011245728 .20498657 .011245728 .17199707 .03225708 .17199707 .107284549 .17199707 .1512909 .18099976 .18630982 .20999146 .30033876 .21699524 .32434083 .21699524 .32633973 .23199463 .346344 .26098634 .3863678 .29899598 .42037965 .33699037 .42037965 .38198854 .42037965 .3919983 .36335755 .3919983 .3313446 .3919983 .28933717 .36499024 .17030335 .33599855 .106277469Z"/>
<path id="font_2_91" d="M.42900086-.1750946C.42900086-.16308594 .4189911-.16308594 .40499879-.16308594 .35398866-.16308594 .35398866-.15707398 .35398866-.14706421 .35398866-.14004517 .35598756-.13502503 .35699464-.12901306L.49398805 .41737367C.49499513 .42037965 .49699403 .43037416 .49699403 .43037416 .49699403 .43937684 .4889984 .44137574 .48599244 .44137574 .47499085 .44137574 .43899537 .40637208 .4229889 .37835694 .41099549 .4073639 .3849945 .4423828 .33699037 .4423828 .22599793 .4423828 .10798645 .29032899 .10798645 .14428711 .10798645 .059265138 .1539917-.0107421879 .22898865-.0107421879 .269989-.0107421879 .30699159 .015258789 .33499146 .042266847 .31498719-.035812379 .31599427-.035812379 .29599-.114990238 .2849884-.15808106 .28399659-.16209412 .21998596-.16308594 .20698548-.16308594 .19599915-.16308594 .19599915-.18209839 .19599915-.19110108 .20199585-.1940918 .20899964-.1940918 .24099732-.1940918 .27598573-.19110108 .30899049-.19110108 .34199525-.19110108 .37799073-.1940918 .4099884-.1940918 .41600038-.1940918 .42900086-.1940918 .42900086-.1750946M.35499574 .122283939C.34700013 .091278079 .28599549 .011245728 .23098755 .011245728 .18399048 .011245728 .17599488 .07026672 .17599488 .10028076 .17599488 .15029907 .20698548 .26733399 .22499085 .30934144 .25 .37036134 .29599 .42037965 .33699037 .42037965 .34498597 .42037965 .36799623 .41937257 .38598634 .39135743 .3959961 .3753662 .4059906 .346344 .4059906 .3273468 .4059906 .32434083 .40499879 .32034303 .40299989 .3143463L.35499574 .122283939Z"/>
<path id="font_2_118" d="M.4149933-.002746582 .5130005 .39135743C.5139923 .39736939 .5159912 .40237428 .5159912 .405365 .5159912 .41636659 .5079956 .43138124 .48799134 .43138124 .45799256 .43138124 .45098878 .40237428 .44898988 .3943634L.37599183 .10028076C.36898805 .0712738 .32899476 .011245728 .269989 .011245728 .22499085 .011245728 .21598816 .055267335 .21598816 .088272098 .21598816 .14929199 .24899292 .23931885 .27398683 .30734254 .28199769 .32833863 .2869873 .3423462 .2869873 .36135865 .2869873 .41137696 .2539978 .4423828 .21099854 .4423828 .117996219 .4423828 .08299255 .29434205 .08299255 .28833009 .08299255 .27833558 .09298706 .27833558 .09799194 .27833558 .11099243 .27833558 .11199951 .28033448 .115997318 .29434205 .12399292 .3253479 .15098572 .42037965 .20899964 .42037965 .21998596 .42037965 .23098755 .41737367 .23098755 .39135743 .23098755 .36735536 .22099304 .3403473 .20698548 .30133058 .18099976 .23132324 .15499878 .1572876 .15499878 .105285648 .15499878 .018249512 .21299744-.0107421879 .2669983-.0107421879 .31298829-.0107421879 .34399415 .013244629 .35699464 .026260376 .31900025-.13865662 .24499512-.18261719 .19499207-.18261719 .14698792-.18261719 .1329956-.14465332 .1329956-.1396637 .1329956-.1396637 .13398743-.1376648 .14099121-.13665772 .17199707-.13166809 .18399048-.10467529 .18399048-.08869934 .18399048-.06770325 .16799927-.05671692 .1499939-.05671692 .13798523-.056625368 .09899902-.06262207 .09899902-.118621829 .09899902-.17062378 .13999939-.20462036 .19499207-.20462036 .29899598-.20462036 .3899994-.101623538 .4149933-.0026245118V-.002746582Z"/>
<path id="font_2_81" d="M.5089874 .27833558C.5089874 .37335206 .44999696 .4423828 .36299134 .4423828 .23899842 .4423828 .10998535 .30033876 .10998535 .15429688 .10998535 .05126953 .17298889-.0107421879 .2559967-.0107421879 .37998963-.0107421879 .5089874 .13128662 .5089874 .27833558M.43899537 .31733705C.43899537 .2743225 .4169922 .17129517 .3849945 .11128235 .35598756 .056259157 .30499269 .011245728 .2559967 .011245728 .21699524 .011245728 .17999268 .042266847 .17999268 .11428833 .17999268 .16429138 .20599365 .2753296 .23799134 .3293457 .2749939 .3903656 .32299806 .42037965 .3619995 .42037965 .41099549 .42037965 .43899537 .37635804 .43899537 .31733705Z"/>
<path id="font_2_112" d="M.49299623 .37635804C.49299623 .41137696 .48098756 .4423828 .45199586 .4423828 .42900086 .4423828 .4039917 .41937257 .4039917 .3963623 .4039917 .38336183 .41099549 .37635804 .4169922 .36935426 .44099427 .34335328 .44400025 .31134034 .44400025 .29032899 .44400025 .2623291 .39698792 .011245728 .28199769 .011245728 .22799683 .011245728 .21699524 .061264039 .21699524 .0942688 .21699524 .15229798 .24899292 .23931885 .27598573 .31134034 .2809906 .3273468 .2869873 .3423462 .2869873 .36135865 .2869873 .41137696 .2539978 .4423828 .21099854 .4423828 .117996219 .4423828 .08299255 .29434205 .08299255 .28833009 .08299255 .27833558 .09298706 .27833558 .09799194 .27833558 .11099243 .27833558 .11199951 .28033448 .115997318 .29434205 .12399292 .3253479 .15098572 .42037965 .20899964 .42037965 .21998596 .42037965 .23098755 .41737367 .23098755 .39135743 .23098755 .36735536 .22099304 .3403473 .20698548 .30133058 .17599488 .2163086 .1559906 .15629578 .1559906 .10928345 .1559906 .018249512 .21998596-.0107421879 .2789917-.0107421879 .44699098-.0107421879 .49299623 .35035707 .49299623 .37635804Z"/>
<path id="font_2_88" d="M.22200012 .06298828C.22200012 .084991458 .20599365 .10598755 .17799378 .10598755 .1459961 .10598755 .11299133 .07598877 .11299133 .042999269 .11299133 .016998291 .1309967 0 .15699768 0 .19099427 0 .22200012 .032989503 .22200012 .06298828Z"/>
<path id="font_2_83" d="M.7299957 .5346832C.7299957 .6186218 .6619873 .6826172 .5529938 .6826172H.25299073C.23699951 .6826172 .22599793 .6826172 .22599793 .66360476 .22599793 .6516113 .23399353 .6516113 .25299073 .6516113 .28399659 .6516113 .31098939 .6516113 .31098939 .63461306 .31098939 .6316223 .31098939 .6296234 .30699159 .6156311L.17199707 .07296753C.1639862 .038986207 .1579895 .0309906 .08999634 .0309906 .07398987 .0309906 .06298828 .0309906 .06298828 .011993408 .06298828 0 .07398987 0 .07699585 0 .114990238 0 .1559906 .0029907227 .19499207 .0029907227 .23498535 .0029907227 .27598573 0 .31498719 0 .32199098 0 .33399964 0 .33399964 .017990113 .33399964 .0309906 .32699586 .0309906 .30699159 .0309906 .24899292 .0309906 .24899292 .038986207 .24899292 .047973634 .24899292 .051971437 .24899292 .053970338 .25299073 .06796265L.31399537 .3157959H.46899415C.59498599 .3157959 .7299957 .41773988 .7299957 .5346832M.6419983 .56166079C.6419983 .54167178 .6269989 .4437256 .58898928 .39974977 .55400088 .3607788 .5039978 .34179688 .44400025 .34179688H.31799317L.38598634 .6156311C.394989 .6516113 .4019928 .6516113 .43499757 .6516113H.5209961C.59098818 .6516113 .6419983 .6256256 .6419983 .56166079Z"/>
<path id="font_3_97" d="M.49899293 .18579102C.49899293 .2858429 .43299867 .36791993 .34899903 .38793946L.22099304 .4189453C.15899658 .43388368 .11999512 .48773194 .11999512 .5458069 .11999512 .61595156 .17399597 .677063 .2519989 .677063 .4189911 .677063 .44099427 .5127411 .44699098 .46777345 .44799806 .461792 .44799806 .45581056 .45899964 .45581056 .47200013 .45581056 .47200013 .46080018 .47200013 .47973634V.68107607C.47200013 .69807437 .47200013 .7050781 .46099855 .7050781 .45399476 .7050781 .45298768 .70407107 .44599916 .69207766L.41099549 .63497927C.3809967 .66404727 .33999635 .7050781 .25099183 .7050781 .13999939 .7050781 .055999757 .61694338 .055999757 .5107422 .055999757 .42790223 .10899353 .35490418 .18699646 .32788087 .19799805 .32388307 .24899292 .3118744 .31900025 .29486085 .34599305 .28785707 .37599183 .280838 .4039917 .24382019 .4249878 .2177887 .43499757 .18478394 .43499757 .1517334 .43499757 .0806427 .3849945 .008529663 .30099488 .008529663 .27198792 .008529663 .19599915 .013534546 .14299011 .06260681 .084991458 .11668396 .08198547 .18078614 .08099365 .21679688 .07998657 .22679138 .07199097 .22679138 .068984989 .22679138 .055999757 .22679138 .055999757 .2197876 .055999757 .20178223V.0015258789C.055999757-.015472412 .055999757-.022460938 .066986087-.022460938 .07398987-.022460938 .07499695-.020462037 .08198547-.009475708 .08198547-.009475708 .084991458-.0054626467 .117996219 .047592164 .14898682 .013534546 .21299744-.022460938 .3019867-.022460938 .4189911-.022460938 .49899293 .07562256 .49899293 .18579102Z"/>
<path id="font_3_66" d="M.24699402 0V.0309906C.18099976 .0309906 .1769867 .035995485 .1769867 .075042728V.4423828L.036987306 .43066407V.3996582C.101989749 .3996582 .11099243 .3936615 .11099243 .3447113V.07595825C.11099243 .0309906 .099990848 .0309906 .032989503 .0309906V0L.14299011 .0029907227C.17799378 .0029907227 .21299744 .0009918213 .24699402 0M.19198609 .603775C.19198609 .6307678 .16899109 .6567688 .13899231 .6567688 .10499573 .6567688 .084991458 .6287689 .084991458 .603775 .084991458 .57676699 .10798645 .55078127 .13798523 .55078127 .17199707 .55078127 .19198609 .5787811 .19198609 .603775Z"/>
<path id="font_3_77" d="M.5349884 0V.0309906C.48298646 .0309906 .45799256 .0309906 .45700074 .061019899V.25221253C.45700074 .3383026 .45700074 .36932374 .42599488 .405365 .4119873 .42237855 .3789978 .4423828 .32099916 .4423828 .24798584 .4423828 .20098877 .39935304 .17298889 .33729554V.4423828L.03199768 .43066407V.3996582C.101989749 .3996582 .10998535 .39266969 .10998535 .34370423V.07595825C.10998535 .0309906 .09899902 .0309906 .03199768 .0309906V0L.14498902 .0029907227 .25698854 0V.0309906C.18998719 .0309906 .1789856 .0309906 .1789856 .07595825V.25978089C.1789856 .36431886 .25 .42037965 .31399537 .42037965 .3769989 .42037965 .3880005 .36631776 .3880005 .30926515V.076034549C.3880005 .0309906 .3769989 .0309906 .30999757 .0309906V0L.4229889 .0029907227 .5349884 0Z"/>
<path id="font_3_43" d="M.4149933 .119140628C.4149933 .12911988 .40499879 .12911988 .4019928 .12911988 .3929901 .12911988 .3909912 .12512207 .3889923 .119140628 .3600006 .026229859 .29499818 .014251709 .2579956 .014251709 .20498657 .014251709 .116989139 .0572052 .116989139 .21801758 .116989139 .38093568 .19898987 .42323304 .2519989 .42323304 .26098634 .42323304 .32398988 .42222596 .35899354 .38594056 .31799317 .38293458 .31199647 .3529358 .31199647 .3399353 .31199647 .31393434 .32998658 .2939453 .35798646 .2939453 .38398744 .2939453 .4039917 .3109436 .4039917 .34094239 .4039917 .40911866 .32798768 .4482422 .25099183 .4482422 .12599182 .4482422 .033996583 .3399353 .033996583 .21601868 .033996583 .08816528 .1329956-.0107421879 .24899292-.0107421879 .3829956-.0107421879 .4149933 .10914612 .4149933 .119140628Z"/>
<path id="font_3_50" d="M.4149933 .11933899C.4149933 .12934876 .40699769 .13134766 .4019928 .13134766 .3929901 .13134766 .3909912 .12535095 .3889923 .11734009 .35398866 .014251709 .2639923 .014251709 .2539978 .014251709 .20399475 .014251709 .1639862 .044281007 .14099121 .08131409 .11099243 .12934876 .11099243 .19540406 .11099243 .23144531H.3899994C.4119873 .23144531 .4149933 .23144531 .4149933 .2524414 .4149933 .35131837 .36099244 .4482422 .23599243 .4482422 .11999512 .4482422 .027999878 .34532167 .027999878 .22042847 .027999878 .08631897 .1329956-.0107421879 .24798584-.0107421879 .36999513-.0107421879 .4149933 .10032654 .4149933 .11933899M.34899903 .2524414H.11199951C.117996219 .40126039 .20199585 .426239 .23599243 .426239 .33898927 .426239 .34899903 .2913971 .34899903 .2524414Z"/>
<path id="font_3_105" d="M.33198548 .12385559V.18066406H.30699159V.12585449C.30699159 .052108766 .2769928 .014251709 .23999024 .014251709 .17298889 .014251709 .17298889 .10491943 .17298889 .12187195V.3996582H.31599427V.43066407H.17298889V.6142578H.147995C.14698792 .5324249 .116989139 .42565919 .018997193 .42166139V.3996582H.10398865V.12408447C.10398865 .0012512207 .19699097-.0107421879 .23298645-.0107421879 .3039856-.0107421879 .33198548 .060180665 .33198548 .12408447V.12385559Z"/>
<path id="font_3_63" d="M.5349884 0V.0309906C.48298646 .0309906 .45799256 .0309906 .45700074 .061019899V.25221253C.45700074 .3383026 .45700074 .36932374 .42599488 .405365 .4119873 .42237855 .3789978 .4423828 .32099916 .4423828 .23699951 .4423828 .19299317 .38233949 .1769867 .34629823H.17599488V.69433596L.03199768 .6826172V.6516113C.101989749 .6516113 .10998535 .64463809 .10998535 .59580996V.076034549C.10998535 .0309906 .09899902 .0309906 .03199768 .0309906V0L.14498902 .0029907227 .25698854 0V.0309906C.18998719 .0309906 .1789856 .0309906 .1789856 .076034549V.2602234C.1789856 .36431886 .25 .42037965 .31399537 .42037965 .3769989 .42037965 .3880005 .36631776 .3880005 .30926515V.076034549C.3880005 .0309906 .3769989 .0309906 .30999757 .0309906V0L.4229889 .0029907227 .5349884 0Z"/>
<path id="font_3_28" d="M.48298646 .08912659V.14511109H.45799256V.08912659C.45799256 .03112793 .43299867 .025131226 .42199708 .025131226 .3889923 .025131226 .3849945 .070129398 .3849945 .07511902V.27508546C.3849945 .31707765 .3849945 .3560791 .34899903 .39312745 .30999757 .43223573 .2599945 .4482422 .21199036 .4482422 .12998963 .4482422 .06098938 .40115357 .06098938 .335083 .06098938 .30508424 .08099365 .28808595 .10699463 .28808595 .1349945 .28808595 .15299988 .30807496 .15299988 .33407594 .15299988 .3460846 .147995 .37908937 .101989749 .38008119 .1289978 .41519166 .17799378 .426239 .20999146 .426239 .25898744 .426239 .31599427 .38710023 .31599427 .29808045V.26107789C.2649994 .25808717 .19499207 .25508119 .13198853 .22509766 .056991579 .19110108 .03199768 .13911438 .03199768 .09512329 .03199768 .014251709 .1289978-.0107421879 .19198609-.0107421879 .2579956-.0107421879 .3039856 .029251099 .32299806 .07624817 .32699586 .036132814 .35398866-.005859375 .40098573-.005859375 .42199708-.005859375 .48298646 .008132935 .48298646 .08912659M.31599427 .14013672C.31599427 .04525757 .24398804 .011245728 .19898987 .011245728 .1499939 .011245728 .10899353 .04624939 .10899353 .09625244 .10899353 .15124512 .15098572 .23425293 .31599427 .24024964V.14013672Z"/>
<path id="font_3_72" d="M.25498963 0V.0309906C.18798828 .0309906 .1769867 .0309906 .1769867 .07601929V.69433596L.032989503 .6826172V.6516113C.102996829 .6516113 .11099243 .64460757 .11099243 .5956421V.07595825C.11099243 .0309906 .099990848 .0309906 .032989503 .0309906V0L.14399719 .0029907227 .25498963 0Z"/>
<path id="font_3_75" d="M.8129883 0V.0309906C.7609863 .0309906 .73599246 .0309906 .7350006 .061019899V.25221253C.7350006 .3383026 .7350006 .36932374 .70399478 .405365 .6899872 .42237855 .6569977 .4423828 .598999 .4423828 .5149994 .4423828 .47099305 .38233949 .45399476 .34429933 .43998719 .43138124 .3659973 .4423828 .32099916 .4423828 .24798584 .4423828 .20098877 .39935304 .17298889 .33729554V.4423828L.03199768 .43066407V.3996582C.101989749 .3996582 .10998535 .39266969 .10998535 .34370423V.07595825C.10998535 .0309906 .09899902 .0309906 .03199768 .0309906V0L.14498902 .0029907227 .25698854 0V.0309906C.18998719 .0309906 .1789856 .0309906 .1789856 .07595825V.25978089C.1789856 .36431886 .25 .42037965 .31399537 .42037965 .3769989 .42037965 .3880005 .36631776 .3880005 .30926515V.076034549C.3880005 .0309906 .3769989 .0309906 .30999757 .0309906V0L.4229889 .0029907227 .5349884 0V.0309906C.46798707 .0309906 .45700074 .0309906 .45700074 .076034549V.2602234C.45700074 .36431886 .5279999 .42037965 .59199526 .42037965 .6549988 .42037965 .66600039 .36631776 .66600039 .30926515V.076034549C.66600039 .0309906 .6549988 .0309906 .58799746 .0309906V0L.70098879 .0029907227 .8129883 0Z"/>
<path id="font_3_96" d="M.3639984 .38137818C.3639984 .41337586 .33299256 .4423828 .2899933 .4423828 .21699524 .4423828 .18099976 .37538148 .16699219 .3323822V.4423828L.027999878 .43066407V.3996582C.09799194 .3996582 .10598755 .39266969 .10598755 .34370423V.07595825C.10598755 .0309906 .09498596 .0309906 .027999878 .0309906V0L.14199829 .0029907227C.18199158 .0029907227 .22898865 .0029907227 .2689972 0V.0309906H.24798584C.17399597 .0309906 .17199707 .04197693 .17199707 .07795715V.23181153C.17199707 .33137513 .21398926 .42037965 .2899933 .42037965 .29699708 .42037965 .29899598 .42037965 .30099488 .41937257 .2979889 .41838075 .27799989 .40637208 .27799989 .3803711 .27799989 .35237123 .29899598 .33737184 .32099916 .33737184 .33898927 .33737184 .3639984 .3493805 .3639984 .38137818Z"/>
<path id="font_3_116" d="M.5159912 0V.0309906C.46199037 .03125 .44400025 .0332489 .42099 .0622406L.2869873 .23493958C.31698609 .27287293 .35499574 .3217926 .3789978 .3477478 .4099884 .38368226 .45098878 .39866639 .49798585 .3996582V.43066407C.47200013 .4286499 .44198609 .42765809 .41600038 .42765809 .38598634 .42765809 .33299256 .42965699 .31999208 .43066407V.3996582C.34098817 .3973999 .34899903 .3843994 .34899903 .3684082 .34899903 .35240174 .33898927 .33940126 .33399964 .33340455L.27198792 .2554016 .19400025 .35639955C.18499756 .3664093 .18499756 .3684082 .18499756 .3744049 .18499756 .3894043 .19999695 .39840699 .21998596 .39941407V.43066407L.11199951 .42765809C.09098816 .42765809 .04399109 .4286499 .016998291 .43066407V.3996582C.08699036 .3996582 .08799744 .39865113 .1349945 .3387146L.23399353 .20982361C.18699646 .14988709 .18699646 .14788819 .13999939 .09094238 .09199524 .032989503 .032989503 .0309906 .011993408 .0309906V0C.037994386 .0019989014 .068984989 .0029907227 .09498596 .0029907227L.18998719 0V.0309906C.16799927 .034240724 .16099549 .04724121 .16099549 .0622406 .16099549 .084243778 .18998719 .117248538 .25099183 .1892395L.32699586 .08924866C.33499146 .07824707 .34799195 .0622406 .34799195 .056243898 .34799195 .04724121 .33898927 .03224182 .31199647 .03125V0L.41999818 .0029907227C.44699098 .0029907227 .48599244 .0019989014 .5159912 0Z"/>
<path id="font_3_98" d="M.3600006 .12823487C.3600006 .18122864 .32998658 .21122742 .31799317 .22323609 .2849884 .25523377 .24598694 .26322938 .20399475 .27124024 .147995 .28224183 .08099365 .29522706 .08099365 .35324098 .08099365 .38822938 .10699463 .42922975 .19299317 .42922975 .30299378 .42922975 .30799867 .3392334 .30999757 .30822755 .31098939 .2992401 .32199098 .2992401 .32199098 .2992401 .33499146 .2992401 .33499146 .30422975 .33499146 .32322694V.4242401C.33499146 .4412384 .33499146 .4482422 .32398988 .4482422 .31900025 .4482422 .31698609 .4482422 .3039856 .43623353 .30099488 .43223573 .29100038 .42323304 .2869873 .42022706 .24899292 .4482422 .20799256 .4482422 .19299317 .4482422 .070999149 .4482422 .032989503 .38124085 .032989503 .3252411 .032989503 .29023744 .04899597 .26223756 .07598877 .24023438 .10798645 .2142334 .13598633 .2082367 .20799256 .19422913 .22999573 .19021607 .31199647 .17422486 .31199647 .10221863 .31199647 .051223756 .2769928 .011245728 .19898987 .011245728 .114990238 .011245728 .07899475 .068222049 .05999756 .1532135 .056991579 .16621399 .055999757 .17021179 .04598999 .17021179 .032989503 .17021179 .032989503 .16322327 .032989503 .1452179V.013214111C.032989503-.003753662 .032989503-.0107421879 .04399109-.0107421879 .04899597-.0107421879 .049987794-.009750366 .068984989 .009246826 .070999149 .011245728 .070999149 .013214111 .08898926 .032226564 .1329956-.009750366 .17799378-.0107421879 .19898987-.0107421879 .31399537-.0107421879 .3600006 .05621338 .3600006 .1282196V.12823487Z"/>
<path id="font_3_55" d="M.35699464 .63479617C.35699464 .6717987 .31999208 .7050781 .2669983 .7050781 .19699097 .7050781 .11199951 .65179446 .11199951 .5457611V.43066407H.032989503V.3996582H.11199951V.07595825C.11199951 .0309906 .100997928 .0309906 .033996583 .0309906V0L.147995 .0029907227C.18798828 .0029907227 .23498535 .0029907227 .2749939 0V.0309906H.2539978C.17999268 .0309906 .17799378 .04197693 .17799378 .07795715V.3996582H.2919922V.43066407H.1749878V.5467529C.1749878 .63479617 .22299195 .68307498 .2669983 .68307498 .269989 .68307498 .2849884 .68307498 .2999878 .675827 .28799439 .6717987 .269989 .6587982 .269989 .6338043 .269989 .61079409 .28599549 .5907898 .31298829 .5907898 .34199525 .5907898 .35699464 .61079409 .35699464 .63479617Z"/>
<path id="font_3_109" d="M.5349884 0V.0309906C.46499635 .0309906 .45700074 .037994386 .45700074 .08705139V.4423828L.30999757 .43066407V.3996582C.37998963 .3996582 .3880005 .39266969 .3880005 .34373475V.16601563C.3880005 .07910156 .33999635 .011245728 .2669983 .011245728 .18299866 .011245728 .1789856 .058135988 .1789856 .11009216V.4423828L.03199768 .43066407V.3996582C.10998535 .3996582 .10998535 .39666749 .10998535 .3078003V.15802002C.10998535 .080093387 .10998535-.0107421879 .2619934-.0107421879 .31799317-.0107421879 .3619995 .017242432 .3909912 .07910156V-.0107421879L.5349884 0Z"/>
<path id="font_3_70" d="M.5109863 0V.0309906C.47399903 .0309906 .45199586 .0309906 .4139862 .0839386L.2869873 .26278688C.28599549 .26478578 .2809906 .2707672 .2809906 .2737732 .2809906 .277771 .35198976 .33770753 .3619995 .34570313 .4249878 .39666749 .46699525 .39865113 .48799134 .3996582V.43066407C.45899964 .42765809 .44599916 .42765809 .41799928 .42765809 .38198854 .42765809 .31999208 .42965699 .30599977 .43066407V.3996582C.32499696 .39865113 .33499146 .3876648 .33499146 .37467958 .33499146 .3547058 .32099916 .3427124 .31298829 .33570863L.17199707 .21382141V.69433596L.027999878 .6826172V.6516113C.09799194 .6516113 .10598755 .64460757 .10598755 .5956421V.07595825C.10598755 .0309906 .09498596 .0309906 .027999878 .0309906V0L.13699341 .0029907227 .24699402 0V.0309906C.17999268 .0309906 .16899109 .0309906 .16899109 .07595825V.17889405L.23298645 .23387146C.30999757 .12792969 .35198976 .07196045 .35198976 .053985597 .35198976 .034988405 .33499146 .0309906 .31599427 .0309906V0L.42399598 .0029907227C.45298768 .0029907227 .48199464 .0019989014 .5109863 0Z"/>
<path id="font_3_45" d="M.20298767 .0009918213C.20298767 .06498718 .1789856 .10598755 .13899231 .10598755 .10398865 .10598755 .085998538 .07899475 .085998538 .052993776 .085998538 .026992798 .102996829 0 .13899231 0 .1539917 0 .16799927 .005996704 .1789856 .015991211 .18099976-.06312561 .15299988-.12423706 .10899353-.17132569 .102996829-.17733765 .101989749-.17834473 .101989749-.18234253 .101989749-.18936157 .10699463-.19335938 .11199951-.19335938 .12399292-.19335938 .20298767-.114227298 .20298767 .0009918213Z"/>
<path id="font_3_81" d="M.47099305 .21424866C.47099305 .34223939 .37098695 .4482422 .25 .4482422 .125 .4482422 .027999878 .3392334 .027999878 .21424866 .027999878 .085250858 .13198853-.0107421879 .24899292-.0107421879 .36999513-.0107421879 .47099305 .087249759 .47099305 .21424866M.3880005 .22224427C.3880005 .18624878 .3880005 .13224793 .3659973 .08824158 .34399415 .04324341 .2999878 .014251709 .25 .014251709 .20698548 .014251709 .16299439 .035247804 .13598633 .08125305 .11099243 .12524414 .11099243 .18624878 .11099243 .22224427 .11099243 .26124574 .11099243 .31523133 .1349945 .35923768 .1619873 .40522767 .20899964 .426239 .24899292 .426239 .29299928 .426239 .33599855 .40423585 .3619995 .36123658 .3880005 .3182373 .3880005 .26023866 .3880005 .22224427Z"/>
<path id="font_3_118" d="M.5079956 .3996582V.43066407C.4850006 .4286499 .45599366 .42765809 .43299867 .42765809L.34599305 .43066407V.3996582C.3769989 .39866639 .3929901 .3816681 .3929901 .35668946 .3929901 .34669496 .3919983 .34469605 .3869934 .33270265L.28599549 .08685303 .1749878 .35568238C.17098999 .36567689 .16899109 .36967469 .16899109 .3736725 .16899109 .3996582 .20599365 .3996582 .22499085 .3996582V.43066407L.115997318 .42765809C.08898926 .42765809 .04899597 .4286499 .018997193 .43066407V.3996582C.066986087 .3996582 .085998538 .3996582 .099990848 .36468507L.25-.000091552738 .22499085-.059066774C.20298767-.11407471 .1749878-.18309021 .11099243-.18309021 .10598755-.18309021 .08299255-.18309021 .06399536-.16503906 .09498596-.16104126 .102996829-.13905335 .102996829-.123046878 .102996829-.0970459 .083999637-.08103943 .06098938-.08103943 .040985109-.08103943 .018997193-.09403992 .018997193-.124053958 .018997193-.16905213 .06098938-.20507813 .11099243-.20507813 .17399597-.20507813 .21499634-.14804077 .23899842-.091049198L.4149933 .33569337C.44099427 .39865113 .49198915 .3996582 .5079956 .3996582Z"/>
<path id="font_3_47" d="M.5269928 0V.0309906C.45700074 .0309906 .44898988 .038009645 .44898988 .0871582V.69433596L.30499269 .6826172V.6516113C.375 .6516113 .3829956 .64463809 .3829956 .59580996V.38035584C.35398866 .41636659 .31098939 .4423828 .25698854 .4423828 .13899231 .4423828 .033996583 .3443451 .033996583 .21531677 .033996583 .088272098 .13198853-.0107421879 .24598694-.0107421879 .30999757-.0107421879 .35499574 .023254395 .37998963 .055267335V-.0107421879L.5269928 0M.37998963 .117996219C.37998963 .099990848 .37998963 .09799194 .36898805 .08099365 .33898927 .033218385 .2939911 .011245728 .25099183 .011245728 .20599365 .011245728 .16999817 .037216188 .1459961 .075164798 .11999512 .1161499 .116989139 .17320252 .116989139 .21421814 .116989139 .25125123 .11898804 .31129457 .147995 .35632325 .16899109 .38734437 .20698548 .42037965 .26098634 .42037965 .29599 .42037965 .33799745 .405365 .36898805 .3603363 .37998963 .34332276 .37998963 .34132386 .37998963 .32330323V.117996219Z"/>
<path id="font_3_84" d="M.5209961 .21636963C.5209961 .34336854 .42399598 .4423828 .31199647 .4423828 .23399353 .4423828 .19198609 .39837647 .17199707 .3763733V.4423828L.027999878 .43066407V.3996582C.09899902 .3996582 .10598755 .3936615 .10598755 .34973146V-.117996219C.10598755-.16308594 .09498596-.16308594 .027999878-.16308594V-.1940918L.13999939-.19110108 .25299073-.1940918V-.16308594C.18598938-.16308594 .1749878-.16308594 .1749878-.117996219V.050186159 .059173585C.17999268 .04319763 .22200012-.0107421879 .2979889-.0107421879 .4169922-.0107421879 .5209961 .087127689 .5209961 .21594239V.21636963M.43798829 .21594239C.43798829 .09512329 .36799623 .011245728 .2939911 .011245728 .2539978 .011245728 .21598816 .031219483 .18899536 .07215881 .1749878 .09312439 .1749878 .09411621 .1749878 .114089969V.33674623C.20399475 .38838197 .25299073 .41737367 .3039856 .41737367 .3769989 .41737367 .43798829 .32937623 .43798829 .21636963V.21594239Z"/>
<path id="font_3_64" d="M.27598573 .18710327V.24511719H.010986328V.18710327H.27598573Z"/>
<path id="font_3_88" d="M.19198609 .052993776C.19198609 .08198547 .16799927 .10598755 .13899231 .10598755 .10998535 .10598755 .085998538 .08198547 .085998538 .052993776 .085998538 .023986817 .10998535 0 .13899231 0 .16799927 0 .19198609 .023986817 .19198609 .052993776Z"/>
<path id="font_3_104" d="M.68499758 .45214845 .66600039 .6767578H.054992677L.035995485 .45214845H.06098938C.07499695 .6128235 .08999634 .64575198 .24099732 .64575198 .25898744 .64575198 .2849884 .64575198 .29499818 .64375308 .31599427 .6397705 .31599427 .6287842 .31599427 .60583499V.07901001C.31599427 .04499817 .31599427 .0309906 .21099854 .0309906H.17098999V0C.21199036 .0029907227 .31399537 .0029907227 .3600006 .0029907227 .4059906 .0029907227 .5089874 .0029907227 .5499878 0V.0309906H.5099945C.40499879 .0309906 .40499879 .04499817 .40499879 .07901001V.60583499C.40499879 .62579348 .40499879 .6397705 .4229889 .64375308 .43399049 .64575198 .46099855 .64575198 .47999574 .64575198 .6309967 .64575198 .6459961 .6128235 .6599884 .45214845H.68499758Z"/>
<path id="font_3_91" d="M.5269928-.1940918V-.16308594C.45999146-.16308594 .44898988-.16308594 .44898988-.117996219V.4423828H.4269867L.3889923 .35136415C.37599183 .379364 .33499146 .4423828 .25498963 .4423828 .13899231 .4423828 .033996583 .34535218 .033996583 .21531677 .033996583 .090270999 .1309967-.0107421879 .24699402-.0107421879 .31698609-.0107421879 .35798646 .03225708 .37998963 .061264039V-.117996219C.37998963-.16308594 .36898805-.16308594 .3019867-.16308594V-.1940918L.4139862-.19110108 .5269928-.1940918M.3829956 .1362915C.3829956 .104278568 .36499024 .07626343 .34298707 .052261354 .32998658 .038253786 .2979889 .011245728 .25099183 .011245728 .17799378 .011245728 .116989139 .10028076 .116989139 .21531677 .116989139 .3343506 .18699646 .41737367 .26098634 .41737367 .34098817 .41737367 .3829956 .33035279 .3829956 .2773285V.1362915Z"/>
</defs>
<use data-text="T" xlink:href="#font_1_104" transform="matrix(9.96264,0,0,-9.96264,1.9925232,9.019516)"/>
<use data-text="h" xlink:href="#font_1_63" transform="matrix(9.96264,0,0,-9.96264,9.962635,9.019516)"/>
<use data-text="e" xlink:href="#font_1_50" transform="matrix(9.96264,0,0,-9.96264,16.328763,9.019516)"/>
<use data-text="o" xlink:href="#font_1_81" transform="matrix(9.96264,0,0,-9.96264,21.579075,9.019516)"/>
<use data-text="r" xlink:href="#font_1_96" transform="matrix(9.96264,0,0,-9.96264,27.307595,9.019516)"/>
<use data-text="e" xlink:href="#font_1_50" transform="matrix(9.96264,0,0,-9.96264,32.029886,9.019516)"/>
<use data-text="m" xlink:href="#font_1_75" transform="matrix(9.96264,0,0,-9.96264,37.280199,9.019516)"/>
<use data-text="1" xlink:href="#font_1_82" transform="matrix(9.96264,0,0,-9.96264,50.39103,9.019516)"/>
<use data-text="." xlink:href="#font_1_88" transform="matrix(9.96264,0,0,-9.96264,56.11955,9.019516)"/>
<use data-text="I" xlink:href="#font_2_65" transform="matrix(9.96264,0,0,-9.96264,64.08528,9.019516)"/>
<use data-text="f" xlink:href="#font_2_55" transform="matrix(9.96264,0,0,-9.96264,67.93086,9.019516)"/>
<use data-text="t" xlink:href="#font_2_105" transform="matrix(9.96264,0,0,-9.96264,74.31691,9.019516)"/>
<use data-text="h" xlink:href="#font_2_63" transform="matrix(9.96264,0,0,-9.96264,77.62451,9.019516)"/>
<use data-text="e" xlink:href="#font_2_50" transform="matrix(9.96264,0,0,-9.96264,82.715419,9.019516)"/>
<use data-text="c" xlink:href="#font_2_43" transform="matrix(9.96264,0,0,-9.96264,90.63572,9.019516)"/>
<use data-text="h" xlink:href="#font_2_63" transform="matrix(9.96264,0,0,-9.96264,95.21854,9.019516)"/>
<use data-text="a" xlink:href="#font_2_28" transform="matrix(9.96264,0,0,-9.96264,100.30944,9.019516)"/>
<use data-text="n" xlink:href="#font_2_77" transform="matrix(9.96264,0,0,-9.96264,105.40035,9.019516)"/>
<use data-text="n" xlink:href="#font_2_77" transform="matrix(9.96264,0,0,-9.96264,110.99936,9.019516)"/>
<use data-text="e" xlink:href="#font_2_50" transform="matrix(9.96264,0,0,-9.96264,116.59836,9.019516)"/>
<use data-text="l" xlink:href="#font_2_72" transform="matrix(9.96264,0,0,-9.96264,121.18117,9.019516)"/>
<use data-text="m" xlink:href="#font_2_75" transform="matrix(9.96264,0,0,-9.96264,127.06909,9.019516)"/>
<use data-text="a" xlink:href="#font_2_28" transform="matrix(9.96264,0,0,-9.96264,135.21854,9.019516)"/>
<use data-text="t" xlink:href="#font_2_105" transform="matrix(9.96264,0,0,-9.96264,140.30945,9.019516)"/>
<use data-text="r" xlink:href="#font_2_96" transform="matrix(9.96264,0,0,-9.96264,143.61704,9.019516)"/>
<use data-text="i" xlink:href="#font_2_66" transform="matrix(9.96264,0,0,-9.96264,147.82126,9.019516)"/>
<use data-text="x" xlink:href="#font_2_116" transform="matrix(9.96264,0,0,-9.96264,150.87979,9.019516)"/>
<use data-text="i" xlink:href="#font_2_66" transform="matrix(9.96264,0,0,-9.96264,158.82999,9.019516)"/>
<use data-text="s" xlink:href="#font_2_98" transform="matrix(9.96264,0,0,-9.96264,161.88852,9.019516)"/>
<use data-text="f" xlink:href="#font_2_55" transform="matrix(9.96264,0,0,-9.96264,169.30072,9.019516)"/>
<use data-text="u" xlink:href="#font_2_109" transform="matrix(9.96264,0,0,-9.96264,172.35926,9.019516)"/>
<use data-text="l" xlink:href="#font_2_72" transform="matrix(9.96264,0,0,-9.96264,177.7092,9.019516)"/>
<use data-text="l" xlink:href="#font_2_72" transform="matrix(9.96264,0,0,-9.96264,181.02677,9.019516)"/>
<use data-text="r" xlink:href="#font_2_96" transform="matrix(9.96264,0,0,-9.96264,186.91468,9.019516)"/>
<use data-text="a" xlink:href="#font_2_28" transform="matrix(9.96264,0,0,-9.96264,190.62079,9.019516)"/>
<use data-text="n" xlink:href="#font_2_77" transform="matrix(9.96264,0,0,-9.96264,195.7117,9.019516)"/>
<use data-text="k" xlink:href="#font_2_70" transform="matrix(9.96264,0,0,-9.96264,201.3107,9.019516)"/>
<use data-text="," xlink:href="#font_2_45" transform="matrix(9.96264,0,0,-9.96264,205.89351,9.019516)"/>
<use data-text="t" xlink:href="#font_2_105" transform="matrix(9.96264,0,0,-9.96264,212.31941,9.019516)"/>
<use data-text="h" xlink:href="#font_2_63" transform="matrix(9.96264,0,0,-9.96264,215.62702,9.019516)"/>
<use data-text="e" xlink:href="#font_2_50" transform="matrix(9.96264,0,0,-9.96264,220.71793,9.019516)"/>
<use data-text="n" xlink:href="#font_2_77" transform="matrix(9.96264,0,0,-9.96264,225.30074,9.019516)"/>
<use data-text="t" xlink:href="#font_2_105" transform="matrix(9.96264,0,0,-9.96264,234.23722,9.019516)"/>
<use data-text="h" xlink:href="#font_2_63" transform="matrix(9.96264,0,0,-9.96264,237.54482,9.019516)"/>
<use data-text="e" xlink:href="#font_2_50" transform="matrix(9.96264,0,0,-9.96264,242.63573,9.019516)"/>
<use data-text="t" xlink:href="#font_2_105" transform="matrix(9.96264,0,0,-9.96264,250.55602,9.019516)"/>
<use data-text="r" xlink:href="#font_2_96" transform="matrix(9.96264,0,0,-9.96264,253.86362,9.019516)"/>
<use data-text="a" xlink:href="#font_2_28" transform="matrix(9.96264,0,0,-9.96264,257.5697,9.019516)"/>
<use data-text="n" xlink:href="#font_2_77" transform="matrix(9.96264,0,0,-9.96264,262.66065,9.019516)"/>
<use data-text="s" xlink:href="#font_2_98" transform="matrix(9.96264,0,0,-9.96264,268.25965,9.019516)"/>
<use data-text="m" xlink:href="#font_2_75" transform="matrix(9.96264,0,0,-9.96264,272.33436,9.019516)"/>
<use data-text="i" xlink:href="#font_2_66" transform="matrix(9.96264,0,0,-9.96264,280.4838,9.019516)"/>
<use data-text="t" xlink:href="#font_2_105" transform="matrix(9.96264,0,0,-9.96264,283.54234,9.019516)"/>
<use data-text="t" xlink:href="#font_2_105" transform="matrix(9.96264,0,0,-9.96264,286.8499,9.019516)"/>
<use data-text="e" xlink:href="#font_2_50" transform="matrix(9.96264,0,0,-9.96264,290.15754,9.019516)"/>
<use data-text="d" xlink:href="#font_2_47" transform="matrix(9.96264,0,0,-9.96264,294.23225,9.019516)"/>
<use data-text="s" xlink:href="#font_2_98" transform="matrix(9.96264,0,0,-9.96264,302.64076,9.019516)"/>
<use data-text="i" xlink:href="#font_2_66" transform="matrix(9.96264,0,0,-9.96264,306.71546,9.019516)"/>
<use data-text="g" xlink:href="#font_2_59" transform="matrix(9.96264,0,0,-9.96264,309.774,9.019516)"/>
<use data-text="n" xlink:href="#font_2_77" transform="matrix(9.96264,0,0,-9.96264,314.3568,9.019516)"/>
<use data-text="a" xlink:href="#font_2_28" transform="matrix(9.96264,0,0,-9.96264,319.9558,9.019516)"/>
<use data-text="l" xlink:href="#font_2_72" transform="matrix(9.96264,0,0,-9.96264,325.0467,9.019516)"/>
<use data-text="c" xlink:href="#font_2_43" transform="matrix(9.96264,0,0,-9.96264,330.93464,9.019516)"/>
<use data-text="a" xlink:href="#font_2_28" transform="matrix(9.96264,0,0,-9.96264,335.01933,9.019516)"/>
<use data-text="n" xlink:href="#font_2_77" transform="matrix(9.96264,0,0,-9.96264,340.11024,9.019516)"/>
<use data-text="b" xlink:href="#font_2_35" transform="matrix(9.96264,0,0,-9.96264,1.9925232,20.974686)"/>
<use data-text="e" xlink:href="#font_2_50" transform="matrix(9.96264,0,0,-9.96264,6.0772097,20.974686)"/>
<use data-text="u" xlink:href="#font_2_109" transform="matrix(9.96264,0,0,-9.96264,14.216686,20.974686)"/>
<use data-text="n" xlink:href="#font_2_77" transform="matrix(9.96264,0,0,-9.96264,19.566624,20.974686)"/>
<use data-text="i" xlink:href="#font_2_66" transform="matrix(9.96264,0,0,-9.96264,25.165627,20.974686)"/>
<use data-text="q" xlink:href="#font_2_91" transform="matrix(9.96264,0,0,-9.96264,28.224156,20.974686)"/>
<use data-text="u" xlink:href="#font_2_109" transform="matrix(9.96264,0,0,-9.96264,32.80697,20.974686)"/>
<use data-text="e" xlink:href="#font_2_50" transform="matrix(9.96264,0,0,-9.96264,38.156908,20.974686)"/>
<use data-text="l" xlink:href="#font_2_72" transform="matrix(9.96264,0,0,-9.96264,42.73972,20.974686)"/>
<use data-text="y" xlink:href="#font_2_118" transform="matrix(9.96264,0,0,-9.96264,45.290155,20.974686)"/>
<use data-text="r" xlink:href="#font_2_96" transform="matrix(9.96264,0,0,-9.96264,53.698625,20.974686)"/>
<use data-text="e" xlink:href="#font_2_50" transform="matrix(9.96264,0,0,-9.96264,57.404726,20.974686)"/>
<use data-text="c" xlink:href="#font_2_43" transform="matrix(9.96264,0,0,-9.96264,61.479448,20.974686)"/>
<use data-text="o" xlink:href="#font_2_81" transform="matrix(9.96264,0,0,-9.96264,65.55417,20.974686)"/>
<use data-text="v" xlink:href="#font_2_112" transform="matrix(9.96264,0,0,-9.96264,70.64507,20.974686)"/>
<use data-text="e" xlink:href="#font_2_50" transform="matrix(9.96264,0,0,-9.96264,75.22789,20.974686)"/>
<use data-text="r" xlink:href="#font_2_96" transform="matrix(9.96264,0,0,-9.96264,79.8107,20.974686)"/>
<use data-text="e" xlink:href="#font_2_50" transform="matrix(9.96264,0,0,-9.96264,83.50684,20.974686)"/>
<use data-text="d" xlink:href="#font_2_47" transform="matrix(9.96264,0,0,-9.96264,87.58156,20.974686)"/>
<use data-text="." xlink:href="#font_2_88" transform="matrix(9.96264,0,0,-9.96264,92.67247,20.974686)"/>
<use data-text="P" xlink:href="#font_2_83" transform="matrix(9.96264,0,0,-9.96264,1.9925232,40.899969)"/>
<use data-text="r" xlink:href="#font_2_96" transform="matrix(9.96264,0,0,-9.96264,8.747192,40.899969)"/>
<use data-text="o" xlink:href="#font_2_81" transform="matrix(9.96264,0,0,-9.96264,12.453297,40.899969)"/>
<use data-text="o" xlink:href="#font_2_81" transform="matrix(9.96264,0,0,-9.96264,17.03611,40.899969)"/>
<use data-text="f" xlink:href="#font_2_55" transform="matrix(9.96264,0,0,-9.96264,22.127018,40.899969)"/>
<use data-text="." xlink:href="#font_2_88" transform="matrix(9.96264,0,0,-9.96264,25.185547,40.899969)"/>
<use data-text="S" xlink:href="#font_3_97" transform="matrix(9.96264,0,0,-9.96264,33.21543,40.899969)"/>
<use data-text="i" xlink:href="#font_3_66" transform="matrix(9.96264,0,0,-9.96264,38.75466,40.899969)"/>
<use data-text="n" xlink:href="#font_3_77" transform="matrix(9.96264,0,0,-9.96264,41.524278,40.899969)"/>
<use data-text="c" xlink:href="#font_3_43" transform="matrix(9.96264,0,0,-9.96264,47.063508,40.899969)"/>
<use data-text="e" xlink:href="#font_3_50" transform="matrix(9.96264,0,0,-9.96264,51.486917,40.899969)"/>
<use data-text="t" xlink:href="#font_3_105" transform="matrix(9.96264,0,0,-9.96264,59.666246,40.899969)"/>
<use data-text="h" xlink:href="#font_3_63" transform="matrix(9.96264,0,0,-9.96264,63.541715,40.899969)"/>
<use data-text="e" xlink:href="#font_3_50" transform="matrix(9.96264,0,0,-9.96264,69.08094,40.899969)"/>
<use data-text="c" xlink:href="#font_3_43" transform="matrix(9.96264,0,0,-9.96264,77.27023,40.899969)"/>
<use data-text="h" xlink:href="#font_3_63" transform="matrix(9.96264,0,0,-9.96264,81.42465,40.899969)"/>
<use data-text="a" xlink:href="#font_3_28" transform="matrix(9.96264,0,0,-9.96264,86.96388,40.899969)"/>
<use data-text="n" xlink:href="#font_3_77" transform="matrix(9.96264,0,0,-9.96264,91.9452,40.899969)"/>
<use data-text="n" xlink:href="#font_3_77" transform="matrix(9.96264,0,0,-9.96264,97.48443,40.899969)"/>
<use data-text="e" xlink:href="#font_3_50" transform="matrix(9.96264,0,0,-9.96264,103.02366,40.899969)"/>
<use data-text="l" xlink:href="#font_3_72" transform="matrix(9.96264,0,0,-9.96264,107.44707,40.899969)"/>
<use data-text="m" xlink:href="#font_3_75" transform="matrix(9.96264,0,0,-9.96264,113.972599,40.899969)"/>
<use data-text="a" xlink:href="#font_3_28" transform="matrix(9.96264,0,0,-9.96264,122.27148,40.899969)"/>
<use data-text="t" xlink:href="#font_3_105" transform="matrix(9.96264,0,0,-9.96264,127.25279,40.899969)"/>
<use data-text="r" xlink:href="#font_3_96" transform="matrix(9.96264,0,0,-9.96264,131.12827,40.899969)"/>
<use data-text="i" xlink:href="#font_3_66" transform="matrix(9.96264,0,0,-9.96264,135.03362,40.899969)"/>
<use data-text="x" xlink:href="#font_3_116" transform="matrix(9.96264,0,0,-9.96264,137.80323,40.899969)"/>
<use data-text="i" xlink:href="#font_3_66" transform="matrix(9.96264,0,0,-9.96264,146.81943,40.899969)"/>
<use data-text="s" xlink:href="#font_3_98" transform="matrix(9.96264,0,0,-9.96264,149.58904,40.899969)"/>
<use data-text="f" xlink:href="#font_3_55" transform="matrix(9.96264,0,0,-9.96264,157.28018,40.899969)"/>
<use data-text="u" xlink:href="#font_3_109" transform="matrix(9.96264,0,0,-9.96264,160.32877,40.899969)"/>
<use data-text="l" xlink:href="#font_3_72" transform="matrix(9.96264,0,0,-9.96264,165.86798,40.899969)"/>
<use data-text="l" xlink:href="#font_3_72" transform="matrix(9.96264,0,0,-9.96264,168.6376,40.899969)"/>
<use data-text="r" xlink:href="#font_3_96" transform="matrix(9.96264,0,0,-9.96264,175.1731,40.899969)"/>
<use data-text="a" xlink:href="#font_3_28" transform="matrix(9.96264,0,0,-9.96264,179.07846,40.899969)"/>
<use data-text="n" xlink:href="#font_3_77" transform="matrix(9.96264,0,0,-9.96264,184.05979,40.899969)"/>
<use data-text="k" xlink:href="#font_3_70" transform="matrix(9.96264,0,0,-9.96264,189.599,40.899969)"/>
<use data-text="," xlink:href="#font_3_45" transform="matrix(9.96264,0,0,-9.96264,194.85929,40.899969)"/>
<use data-text="i" xlink:href="#font_3_66" transform="matrix(9.96264,0,0,-9.96264,201.50437,40.899969)"/>
<use data-text="t" xlink:href="#font_3_105" transform="matrix(9.96264,0,0,-9.96264,204.27397,40.899969)"/>
<use data-text="s" xlink:href="#font_3_98" transform="matrix(9.96264,0,0,-9.96264,208.14945,40.899969)"/>
<use data-text="c" xlink:href="#font_3_43" transform="matrix(9.96264,0,0,-9.96264,215.83065,40.899969)"/>
<use data-text="o" xlink:href="#font_3_81" transform="matrix(9.96264,0,0,-9.96264,220.25406,40.899969)"/>
<use data-text="l" xlink:href="#font_3_72" transform="matrix(9.96264,0,0,-9.96264,225.23538,40.899969)"/>
<use data-text="u" xlink:href="#font_3_109" transform="matrix(9.96264,0,0,-9.96264,228.00499,40.899969)"/>
<use data-text="m" xlink:href="#font_3_75" transform="matrix(9.96264,0,0,-9.96264,233.54422,40.899969)"/>
<use data-text="n" xlink:href="#font_3_77" transform="matrix(9.96264,0,0,-9.96264,241.8431,40.899969)"/>
<use data-text="s" xlink:href="#font_3_98" transform="matrix(9.96264,0,0,-9.96264,247.38233,40.899969)"/>
<use data-text="a" xlink:href="#font_3_28" transform="matrix(9.96264,0,0,-9.96264,255.07349,40.899969)"/>
<use data-text="r" xlink:href="#font_3_96" transform="matrix(9.96264,0,0,-9.96264,260.0548,40.899969)"/>
<use data-text="e" xlink:href="#font_3_50" transform="matrix(9.96264,0,0,-9.96264,263.96015,40.899969)"/>
<use data-text="l" xlink:href="#font_3_72" transform="matrix(9.96264,0,0,-9.96264,272.14949,40.899969)"/>
<use data-text="i" xlink:href="#font_3_66" transform="matrix(9.96264,0,0,-9.96264,274.91908,40.899969)"/>
<use data-text="n" xlink:href="#font_3_77" transform="matrix(9.96264,0,0,-9.96264,277.68867,40.899969)"/>
<use data-text="e" xlink:href="#font_3_50" transform="matrix(9.96264,0,0,-9.96264,283.2279,40.899969)"/>
<use data-text="a" xlink:href="#font_3_28" transform="matrix(9.96264,0,0,-9.96264,287.6513,40.899969)"/>
<use data-text="r" xlink:href="#font_3_96" transform="matrix(9.96264,0,0,-9.96264,292.63264,40.899969)"/>
<use data-text="l" xlink:href="#font_3_72" transform="matrix(9.96264,0,0,-9.96264,296.538,40.899969)"/>
<use data-text="y" xlink:href="#font_3_118" transform="matrix(9.96264,0,0,-9.96264,299.30763,40.899969)"/>
<use data-text="i" xlink:href="#font_3_66" transform="matrix(9.96264,0,0,-9.96264,308.33375,40.899969)"/>
<use data-text="n" xlink:href="#font_3_77" transform="matrix(9.96264,0,0,-9.96264,311.10337,40.899969)"/>
<use data-text="d" xlink:href="#font_3_47" transform="matrix(9.96264,0,0,-9.96264,316.64259,40.899969)"/>
<use data-text="e" xlink:href="#font_3_50" transform="matrix(9.96264,0,0,-9.96264,322.18183,40.899969)"/>
<use data-text="p" xlink:href="#font_3_84" transform="matrix(9.96264,0,0,-9.96264,326.60523,40.899969)"/>
<use data-text="e" xlink:href="#font_3_50" transform="matrix(9.96264,0,0,-9.96264,332.42344,40.899969)"/>
<use data-text="n" xlink:href="#font_3_77" transform="matrix(9.96264,0,0,-9.96264,336.84684,40.899969)"/>
<use data-text="-" xlink:href="#font_3_64" transform="matrix(9.96264,0,0,-9.96264,342.38606,40.899969)"/>
<use data-text="d" xlink:href="#font_3_47" transform="matrix(9.96264,0,0,-9.96264,1.9925232,52.855138)"/>
<use data-text="e" xlink:href="#font_3_50" transform="matrix(9.96264,0,0,-9.96264,7.5317537,52.855138)"/>
<use data-text="n" xlink:href="#font_3_77" transform="matrix(9.96264,0,0,-9.96264,11.955166,52.855138)"/>
<use data-text="t" xlink:href="#font_3_105" transform="matrix(9.96264,0,0,-9.96264,17.225403,52.855138)"/>
<use data-text="." xlink:href="#font_3_88" transform="matrix(9.96264,0,0,-9.96264,21.100869,52.855138)"/>
<use data-text="T" xlink:href="#font_3_104" transform="matrix(9.96264,0,0,-9.96264,28.283932,52.855138)"/>
<use data-text="h" xlink:href="#font_3_63" transform="matrix(9.96264,0,0,-9.96264,35.47696,52.855138)"/>
<use data-text="e" xlink:href="#font_3_50" transform="matrix(9.96264,0,0,-9.96264,41.01619,52.855138)"/>
<use data-text="r" xlink:href="#font_3_96" transform="matrix(9.96264,0,0,-9.96264,45.439599,52.855138)"/>
<use data-text="e" xlink:href="#font_3_50" transform="matrix(9.96264,0,0,-9.96264,49.344957,52.855138)"/>
<use data-text="f" xlink:href="#font_3_55" transform="matrix(9.96264,0,0,-9.96264,53.768369,52.855138)"/>
<use data-text="o" xlink:href="#font_3_81" transform="matrix(9.96264,0,0,-9.96264,56.816938,52.855138)"/>
<use data-text="r" xlink:href="#font_3_96" transform="matrix(9.96264,0,0,-9.96264,61.798257,52.855138)"/>
<use data-text="e" xlink:href="#font_3_50" transform="matrix(9.96264,0,0,-9.96264,65.70361,52.855138)"/>
<use data-text="," xlink:href="#font_3_45" transform="matrix(9.96264,0,0,-9.96264,70.12702,52.855138)"/>
<use data-text="t" xlink:href="#font_3_105" transform="matrix(9.96264,0,0,-9.96264,76.214199,52.855138)"/>
<use data-text="h" xlink:href="#font_3_63" transform="matrix(9.96264,0,0,-9.96264,80.08966,52.855138)"/>
<use data-text="e" xlink:href="#font_3_50" transform="matrix(9.96264,0,0,-9.96264,85.62889,52.855138)"/>
<use data-text="l" xlink:href="#font_3_72" transform="matrix(9.96264,0,0,-9.96264,93.36986,52.855138)"/>
<use data-text="i" xlink:href="#font_3_66" transform="matrix(9.96264,0,0,-9.96264,96.13948,52.855138)"/>
<use data-text="n" xlink:href="#font_3_77" transform="matrix(9.96264,0,0,-9.96264,98.90909,52.855138)"/>
<use data-text="e" xlink:href="#font_3_50" transform="matrix(9.96264,0,0,-9.96264,104.44832,52.855138)"/>
<use data-text="a" xlink:href="#font_3_28" transform="matrix(9.96264,0,0,-9.96264,108.871738,52.855138)"/>
<use data-text="r" xlink:href="#font_3_96" transform="matrix(9.96264,0,0,-9.96264,113.85305,52.855138)"/>
<use data-text="s" xlink:href="#font_3_98" transform="matrix(9.96264,0,0,-9.96264,121.07596,52.855138)"/>
<use data-text="y" xlink:href="#font_3_118" transform="matrix(9.96264,0,0,-9.96264,125.00124,52.855138)"/>
<use data-text="s" xlink:href="#font_3_98" transform="matrix(9.96264,0,0,-9.96264,130.26152,52.855138)"/>
<use data-text="t" xlink:href="#font_3_105" transform="matrix(9.96264,0,0,-9.96264,134.1868,52.855138)"/>
<use data-text="e" xlink:href="#font_3_50" transform="matrix(9.96264,0,0,-9.96264,138.06226,52.855138)"/>
<use data-text="m" xlink:href="#font_3_75" transform="matrix(9.96264,0,0,-9.96264,142.48567,52.855138)"/>
<use data-text="h" xlink:href="#font_3_63" transform="matrix(9.96264,0,0,-9.96264,154.10211,52.855138)"/>
<use data-text="a" xlink:href="#font_3_28" transform="matrix(9.96264,0,0,-9.96264,159.64134,52.855138)"/>
<use data-text="s" xlink:href="#font_3_98" transform="matrix(9.96264,0,0,-9.96264,164.62267,52.855138)"/>
<use data-text="a" xlink:href="#font_3_28" transform="matrix(9.96264,0,0,-9.96264,171.86551,52.855138)"/>
<use data-text="u" xlink:href="#font_3_109" transform="matrix(9.96264,0,0,-9.96264,180.16439,52.855138)"/>
<use data-text="n" xlink:href="#font_3_77" transform="matrix(9.96264,0,0,-9.96264,185.70362,52.855138)"/>
<use data-text="i" xlink:href="#font_3_66" transform="matrix(9.96264,0,0,-9.96264,191.24285,52.855138)"/>
<use data-text="q" xlink:href="#font_3_91" transform="matrix(9.96264,0,0,-9.96264,194.01245,52.855138)"/>
<use data-text="u" xlink:href="#font_3_109" transform="matrix(9.96264,0,0,-9.96264,199.27274,52.855138)"/>
<use data-text="e" xlink:href="#font_3_50" transform="matrix(9.96264,0,0,-9.96264,204.81197,52.855138)"/>
<use data-text="s" xlink:href="#font_3_98" transform="matrix(9.96264,0,0,-9.96264,212.55295,52.855138)"/>
<use data-text="o" xlink:href="#font_3_81" transform="matrix(9.96264,0,0,-9.96264,216.47823,52.855138)"/>
<use data-text="l" xlink:href="#font_3_72" transform="matrix(9.96264,0,0,-9.96264,221.45955,52.855138)"/>
<use data-text="u" xlink:href="#font_3_109" transform="matrix(9.96264,0,0,-9.96264,224.22916,52.855138)"/>
<use data-text="t" xlink:href="#font_3_105" transform="matrix(9.96264,0,0,-9.96264,229.76839,52.855138)"/>
<use data-text="i" xlink:href="#font_3_66" transform="matrix(9.96264,0,0,-9.96264,233.64386,52.855138)"/>
<use data-text="o" xlink:href="#font_3_81" transform="matrix(9.96264,0,0,-9.96264,236.41347,52.855138)"/>
<use data-text="n" xlink:href="#font_3_77" transform="matrix(9.96264,0,0,-9.96264,241.39479,52.855138)"/>
<use data-text="." xlink:href="#font_3_88" transform="matrix(9.96264,0,0,-9.96264,246.93402,52.855138)"/>
</svg>
